PathFileType	4	(X/Y/Z)	 control3min.trc
DataRate	CameraRate	NumFrames	NumMarkers	Units	OrigDataRate	OrigDataStartFrame	OrigNumFrames
200	200	8	43	m	200	501	1000
Frame#	Time	C7			LSH			RSH			MAN			RASI			LASI			HIPR			HIPL			RPSI			LPSI			COX			RTHI1			RTHI2			RTHI3			RTHI4			RLKN			RMKN			RSHA1			RSHA2			RSHA3			RSHA4			RLMAL			RMMAL			RHEEL			RMET5			RMET1			RTOE			LTHI1			LTHI2			LTHI3			LTHI4			LLKN			LMKN			LSHA1			LSHA2			LSHA3			LSHA4			LLMAL			LMMAL			LHEEL			LMET5			LMET1			LTOE			
		X1	Y1	Z1	X2	Y2	Z2	X3	Y3	Z3	X4	Y4	Z4	X5	Y5	Z5	X6	Y6	Z6	X7	Y7	Z7	X8	Y8	Z8	X9	Y9	Z9	X10	Y10	Z10	X11	Y11	Z11	X12	Y12	Z12	X13	Y13	Z13	X14	Y14	Z14	X15	Y15	Z15	X16	Y16	Z16	X17	Y17	Z17	X18	Y18	Z18	X19	Y19	Z19	X20	Y20	Z20	X21	Y21	Z21	X22	Y22	Z22	X23	Y23	Z23	X24	Y24	Z24	X25	Y25	Z25	X26	Y26	Z26	X27	Y27	Z27	X28	Y28	Z28	X29	Y29	Z29	X30	Y30	Z30	X31	Y31	Z31	X32	Y32	Z32	X33	Y33	Z33	X34	Y34	Z34	X35	Y35	Z35	X36	Y36	Z36	X37	Y37	Z37	X38	Y38	Z38	X39	Y39	Z39	X40	Y40	Z40	X41	Y41	Z41	X42	Y42	Z42	X43	Y43	Z43	
501	2.5050	-0.317089	1.515496	-0.520935	-0.276495	1.522282	-0.706033	-0.256563	1.505066	-0.346255	-0.190854	1.459573	-0.526930	-0.200832	1.021336	-0.430126	-0.199225	1.028088	-0.646491	-0.247393	1.075542	-0.396438	-0.259899	1.078686	-0.675725	-0.350082	1.078645	-0.474715	-0.345941	1.082047	-0.589811	-0.351367	1.081583	-0.534209	-0.300330	0.834113	-0.350576	-0.298894	0.772749	-0.350011	-0.226833	0.781877	-0.354861	-0.235170	0.841030	-0.356568	-0.270458	0.524253	-0.368771	-0.261728	0.507995	-0.468507	-0.382526	0.354859	-0.368834	-0.392095	0.314299	-0.381180	-0.334810	0.302391	-0.363882	-0.327699	0.341630	-0.356651	-0.385270	0.159788	-0.379692	-0.360343	0.167260	-0.458429	-0.436359	0.149973	-0.430477	-0.306803	0.065640	-0.354042	-0.259169	0.065843	-0.424495	-0.234872	0.058692	-0.420060	-0.298608	0.806801	-0.720960	-0.295902	0.747122	-0.721871	-0.223061	0.752877	-0.718740	-0.234523	0.813913	-0.718949	-0.267177	0.522174	-0.705962	-0.274855	0.510793	-0.601351	-0.369279	0.331294	-0.722041	-0.380436	0.292898	-0.715308	-0.319522	0.281637	-0.713565	-0.315828	0.324954	-0.720102	-0.370584	0.161961	-0.713776	-0.371861	0.164219	-0.635112	-0.432081	0.149505	-0.681783	-0.283094	0.065472	-0.714259	-0.258465	0.063972	-0.640363	-0.237804	0.057702	-0.647379	
502	2.5100	-0.316915	1.513657	-0.520690	-0.276309	1.520207	-0.706008	-0.256196	1.502896	-0.345890	-0.190705	1.457593	-0.526751	-0.201230	1.019636	-0.430045	-0.199780	1.026365	-0.646454	-0.247819	1.073714	-0.396298	-0.260599	1.076723	-0.675581	-0.350574	1.076631	-0.474508	-0.346501	1.079991	-0.589590	-0.351887	1.079526	-0.533995	-0.299891	0.832221	-0.350403	-0.298353	0.770866	-0.349872	-0.226330	0.780106	-0.355074	-0.234764	0.839240	-0.356712	-0.269599	0.522380	-0.368743	-0.261445	0.506210	-0.468627	-0.382072	0.353190	-0.368617	-0.391834	0.312733	-0.380893	-0.334473	0.300626	-0.363958	-0.327219	0.339846	-0.356701	-0.385506	0.158146	-0.379719	-0.360893	0.165783	-0.458530	-0.436910	0.148890	-0.430186	-0.307512	0.063321	-0.354877	-0.260246	0.063567	-0.425564	-0.236001	0.056222	-0.421298	-0.298382	0.804858	-0.720687	-0.295532	0.745219	-0.721581	-0.222727	0.751121	-0.718163	-0.234319	0.812130	-0.718442	-0.266799	0.520305	-0.705590	-0.274701	0.508999	-0.600948	-0.369350	0.329639	-0.721632	-0.380622	0.291268	-0.714885	-0.319750	0.279853	-0.712945	-0.315927	0.323153	-0.719558	-0.371014	0.160313	-0.713157	-0.372643	0.162646	-0.634586	-0.432677	0.147827	-0.681536	-0.283277	0.064070	-0.713068	-0.258929	0.062795	-0.638953	-0.238134	0.056390	-0.645720	
503	2.5150	-0.316733	1.511590	-0.520444	-0.276106	1.517884	-0.705991	-0.255798	1.500511	-0.345525	-0.190561	1.455357	-0.526581	-0.201636	1.017709	-0.429957	-0.200341	1.024420	-0.646411	-0.248230	1.071688	-0.396163	-0.261307	1.074555	-0.675433	-0.351069	1.074371	-0.474294	-0.347070	1.077708	-0.589357	-0.352421	1.077226	-0.533767	-0.299440	0.830079	-0.350239	-0.297799	0.768734	-0.349732	-0.225810	0.778099	-0.355280	-0.234344	0.837209	-0.356854	-0.268686	0.520253	-0.368714	-0.261094	0.504178	-0.468737	-0.381559	0.351283	-0.368397	-0.391569	0.310967	-0.380578	-0.334118	0.298621	-0.364028	-0.326707	0.337815	-0.356744	-0.385809	0.156329	-0.379716	-0.361519	0.164104	-0.458629	-0.437540	0.147666	-0.429884	-0.308432	0.060725	-0.355702	-0.261497	0.060960	-0.426634	-0.237323	0.053370	-0.422506	-0.298125	0.802693	-0.720407	-0.295137	0.743086	-0.721293	-0.222361	0.749143	-0.717580	-0.234087	0.810124	-0.717931	-0.266346	0.518195	-0.705231	-0.274504	0.506975	-0.600560	-0.369345	0.327750	-0.721281	-0.380739	0.289403	-0.714508	-0.319912	0.277852	-0.712334	-0.315949	0.321094	-0.719014	-0.371442	0.158442	-0.712546	-0.373430	0.160879	-0.634080	-0.433268	0.146099	-0.681303	-0.283713	0.062150	-0.711804	-0.259641	0.061029	-0.637510	-0.238712	0.054393	-0.643994	
504	2.5200	-0.316547	1.509293	-0.520195	-0.275881	1.515320	-0.705983	-0.255377	1.497919	-0.345158	-0.190423	1.452874	-0.526417	-0.202045	1.015548	-0.429859	-0.200902	1.022248	-0.646368	-0.248636	1.069463	-0.396034	-0.262008	1.072182	-0.675285	-0.351563	1.071875	-0.474072	-0.347641	1.075199	-0.589112	-0.352965	1.074687	-0.533532	-0.298976	0.827688	-0.350084	-0.297236	0.766344	-0.349598	-0.225276	0.775846	-0.355477	-0.233922	0.834935	-0.356989	-0.267723	0.517872	-0.368685	-0.260684	0.501898	-0.468835	-0.381016	0.349148	-0.368162	-0.391315	0.309000	-0.380236	-0.333770	0.296377	-0.364095	-0.326185	0.335537	-0.356782	-0.386194	0.154346	-0.379692	-0.362237	0.162222	-0.458732	-0.438265	0.146256	-0.429578	-0.309498	0.057919	-0.356524	-0.262886	0.058060	-0.427682	-0.238773	0.050220	-0.423723	-0.297848	0.800295	-0.720128	-0.294721	0.740717	-0.721010	-0.221976	0.746933	-0.717002	-0.233836	0.807885	-0.717421	-0.265806	0.515843	-0.704884	-0.274260	0.504724	-0.600184	-0.369274	0.325633	-0.720986	-0.380788	0.287320	-0.714164	-0.320005	0.275624	-0.711737	-0.315893	0.318795	-0.718477	-0.371874	0.156355	-0.711949	-0.374216	0.158922	-0.633587	-0.433860	0.144329	-0.681063	-0.284448	0.059767	-0.710575	-0.260582	0.058691	-0.636103	-0.239546	0.051700	-0.642290	
505	2.5250	-0.316363	1.506769	-0.519942	-0.275630	1.512519	-0.705979	-0.254930	1.495120	-0.344796	-0.190285	1.450143	-0.526252	-0.202452	1.013145	-0.429752	-0.201466	1.019842	-0.646325	-0.249037	1.067020	-0.395909	-0.262721	1.069603	-0.675138	-0.352052	1.069142	-0.473851	-0.348218	1.072469	-0.588857	-0.353530	1.071928	-0.533312	-0.298508	0.825044	-0.349945	-0.296669	0.763701	-0.349472	-0.224742	0.773354	-0.355656	-0.233515	0.832423	-0.357110	-0.266708	0.515235	-0.368641	-0.260218	0.499368	-0.468910	-0.380481	0.346802	-0.367894	-0.391098	0.306831	-0.379868	-0.333460	0.293900	-0.364158	-0.325685	0.333014	-0.356816	-0.386665	0.152180	-0.379659	-0.363074	0.160132	-0.458851	-0.439102	0.144613	-0.429276	-0.310666	0.054939	-0.357326	-0.264373	0.054926	-0.428784	-0.240293	0.046777	-0.424934	-0.297559	0.797663	-0.719856	-0.294290	0.738108	-0.720726	-0.221576	0.744486	-0.716435	-0.233575	0.805407	-0.716926	-0.265170	0.513253	-0.704552	-0.273978	0.502253	-0.599814	-0.369152	0.323298	-0.720749	-0.380774	0.285017	-0.713851	-0.320029	0.273151	-0.711138	-0.315766	0.316274	-0.717970	-0.372331	0.154073	-0.711370	-0.375023	0.156790	-0.633081	-0.434488	0.142491	-0.680801	-0.285485	0.056841	-0.709385	-0.261780	0.055749	-0.634750	-0.240647	0.048277	-0.640635	
506	2.5300	-0.316180	1.504011	-0.519687	-0.275361	1.509488	-0.705975	-0.254456	1.492134	-0.344448	-0.190158	1.447158	-0.526084	-0.202851	1.010497	-0.429636	-0.202033	1.017192	-0.646288	-0.249438	1.064352	-0.395782	-0.263434	1.066813	-0.674991	-0.352531	1.066167	-0.473632	-0.348788	1.069520	-0.588589	-0.354091	1.068938	-0.533080	-0.298048	0.822146	-0.349824	-0.296107	0.760804	-0.349356	-0.224217	0.770620	-0.355815	-0.233128	0.829664	-0.357212	-0.265638	0.512350	-0.368572	-0.259699	0.496592	-0.468954	-0.380001	0.344262	-0.367580	-0.390949	0.304464	-0.379475	-0.333225	0.291194	-0.364219	-0.325242	0.330250	-0.356847	-0.387250	0.149858	-0.379635	-0.364094	0.157856	-0.459005	-0.440081	0.142691	-0.428975	-0.311861	0.051873	-0.358080	-0.265689	0.051742	-0.430068	-0.241535	0.043254	-0.426178	-0.297267	0.794784	-0.719594	-0.293857	0.735247	-0.720434	-0.221170	0.741793	-0.715891	-0.233312	0.802683	-0.716461	-0.264425	0.510419	-0.704235	-0.273628	0.499567	-0.599458	-0.369008	0.320757	-0.720570	-0.380723	0.282502	-0.713576	-0.320021	0.270462	-0.710554	-0.315593	0.313511	-0.717496	-0.372915	0.151621	-0.710805	-0.375916	0.154492	-0.632555	-0.435225	0.140509	-0.680481	-0.286820	0.053497	-0.708250	-0.263164	0.052397	-0.633284	-0.241689	0.044770	-0.638899	
507	2.5350	-0.316011	1.501021	-0.519434	-0.275063	1.506236	-0.705961	-0.253960	1.488951	-0.344127	-0.190040	1.443926	-0.525915	-0.203238	1.007603	-0.429508	-0.202604	1.014297	-0.646259	-0.249842	1.061444	-0.395649	-0.264139	1.063809	-0.674848	-0.352998	1.062958	-0.473413	-0.349349	1.066350	-0.588305	-0.354645	1.065718	-0.532839	-0.297611	0.818985	-0.349717	-0.295562	0.757652	-0.349249	-0.223705	0.767645	-0.355949	-0.232776	0.826664	-0.357290	-0.264520	0.509207	-0.368474	-0.259129	0.493567	-0.468958	-0.379616	0.341546	-0.367215	-0.390900	0.301907	-0.379064	-0.333105	0.288271	-0.364276	-0.324895	0.327256	-0.356874	-0.387974	0.147332	-0.379665	-0.365342	0.155411	-0.459205	-0.441239	0.140451	-0.428670	-0.313014	0.048872	-0.358750	-0.266355	0.049093	-0.431203	-0.241885	0.040022	-0.427626	-0.296985	0.791654	-0.719348	-0.293430	0.732125	-0.720144	-0.220769	0.738864	-0.715387	-0.233060	0.799715	-0.716033	-0.263566	0.507353	-0.703942	-0.273201	0.496664	-0.599128	-0.368879	0.318023	-0.720450	-0.380693	0.279795	-0.713331	-0.320047	0.267545	-0.709969	-0.315426	0.310524	-0.717068	-0.373726	0.149020	-0.710250	-0.376989	0.152043	-0.632020	-0.436138	0.138297	-0.680098	-0.288269	0.050042	-0.707371	-0.264254	0.049610	-0.631660	-0.242401	0.041788	-0.636924	
508	2.5400	-0.315857	1.497802	-0.519187	-0.274742	1.502779	-0.705935	-0.253426	1.485578	-0.343820	-0.189933	1.440450	-0.525744	-0.203607	1.004463	-0.429371	-0.203175	1.011161	-0.646239	-0.250249	1.058285	-0.395505	-0.264847	1.060586	-0.674705	-0.353451	1.059519	-0.473195	-0.349895	1.062955	-0.588010	-0.355183	1.062268	-0.532588	-0.297200	0.815578	-0.349623	-0.295039	0.754243	-0.349156	-0.223223	0.764429	-0.356047	-0.232468	0.823430	-0.357334	-0.263361	0.505806	-0.368339	-0.258521	0.490288	-0.468903	-0.379358	0.338672	-0.366806	-0.390984	0.299179	-0.378644	-0.333136	0.285143	-0.364326	-0.324682	0.324049	-0.356896	-0.388922	0.144658	-0.379749	-0.366866	0.152799	-0.459440	-0.442611	0.137872	-0.428346	-0.313944	0.046263	-0.358979	-0.266506	0.046936	-0.431947	-0.241592	0.037199	-0.429087	-0.296726	0.788274	-0.719135	-0.293015	0.728754	-0.719881	-0.220385	0.735695	-0.714939	-0.232831	0.796504	-0.715657	-0.262592	0.504063	-0.703685	-0.272682	0.493536	-0.598842	-0.368809	0.315116	-0.720385	-0.380750	0.276914	-0.713108	-0.320175	0.264390	-0.709380	-0.315324	0.307319	-0.716696	-0.374830	0.146289	-0.709709	-0.378287	0.149449	-0.631466	-0.437295	0.135807	-0.679670	-0.289438	0.047051	-0.707161	-0.264773	0.047386	-0.630445	-0.242536	0.039439	-0.635306	
